<?xml version="1.0" encoding="UTF-8"?>
<!DOCTYPE svg PUBLIC "-//W3C//DTD SVG 1.1//EN" "http://www.w3.org/Graphics/SVG/1.1/DTD/svg11.dtd">
<svg xmlns="http://www.w3.org/2000/svg" version="1.1" width="1080px" height="1080px" style="shape-rendering:geometricPrecision; text-rendering:geometricPrecision; image-rendering:optimizeQuality; fill-rule:evenodd; clip-rule:evenodd" xmlns:xlink="http://www.w3.org/1999/xlink">
<g><path style="opacity:0.973" fill="#0100f1" d="M 681.5,262.5 C 688.175,262.334 694.842,262.5 701.5,263C 708.384,264.172 712.884,268.005 715,274.5C 715.929,283.884 718.263,292.884 722,301.5C 735.698,307.651 744.365,303.318 748,288.5C 748.521,283.148 749.187,277.815 750,272.5C 751.679,268.23 754.845,265.73 759.5,265C 781.991,261.994 797.825,270.827 807,291.5C 809.712,297.659 808.879,303.159 804.5,308C 795.178,310.664 785.845,313.331 776.5,316C 768.711,318.081 766.044,322.915 768.5,330.5C 769.665,331.584 770.998,332.417 772.5,333C 787.577,334.082 802.244,337.082 816.5,342C 821.724,345.319 824.057,350.152 823.5,356.5C 822.951,364.028 821.451,371.361 819,378.5C 815.174,388.497 808.007,392.331 797.5,390C 787.676,384.519 778.676,377.852 770.5,370C 764.537,366.145 760.537,367.645 758.5,374.5C 760.888,383.278 764.388,391.612 769,399.5C 774.353,419.292 766.853,430.459 746.5,433C 738.669,434.032 731.002,433.365 723.5,431C 716.227,426.79 712.56,420.457 712.5,412C 714.394,402.817 716.394,393.65 718.5,384.5C 718.346,377.158 714.846,374.158 708,375.5C 701.077,401.711 685.243,409.211 660.5,398C 648.372,387.954 644.538,375.454 649,360.5C 651.074,358.548 653.241,356.715 655.5,355C 664.833,351 674.167,347 683.5,343C 686.531,340.936 688.864,338.269 690.5,335C 689.26,332.088 687.594,329.421 685.5,327C 677.703,322.348 670.536,316.848 664,310.5C 651.13,287.608 656.963,271.608 681.5,262.5 Z"/></g>
<g><path style="opacity:0.965" fill="#0100f1" d="M 522.5,393.5 C 528.842,393.334 535.175,393.5 541.5,394C 543.041,395.579 544.208,397.413 545,399.5C 545.499,404.823 545.666,410.156 545.5,415.5C 548.91,414.064 552.077,414.397 555,416.5C 556.369,426.692 554.702,436.358 550,445.5C 546.523,449.271 542.356,450.437 537.5,449C 533.234,455.641 531.234,462.974 531.5,471C 530.184,488.378 536.517,492.045 550.5,482C 557.24,474.715 565.407,469.882 575,467.5C 579.538,467.935 583.204,469.935 586,473.5C 588.984,478.782 590.984,484.449 592,490.5C 594.616,506.09 593.616,521.423 589,536.5C 585.766,544.132 580.599,545.966 573.5,542C 570.963,539.094 568.796,535.927 567,532.5C 566.044,531.106 564.711,530.439 563,530.5C 556.308,534.433 549.475,538.266 542.5,542C 521.836,547.704 509.67,539.871 506,518.5C 503.648,496.353 505.982,474.687 513,453.5C 514.594,447.914 512.428,444.914 506.5,444.5C 501.311,446.439 495.977,447.272 490.5,447C 487.292,443.88 485.959,440.046 486.5,435.5C 486.188,428.261 488.521,422.095 493.5,417C 496.039,415.953 498.705,415.453 501.5,415.5C 507.152,416.33 512.819,416.997 518.5,417.5C 518.708,413.121 518.375,408.787 517.5,404.5C 517.837,400.165 519.503,396.498 522.5,393.5 Z"/></g>
<g><path style="opacity:0.936" fill="#0100f1" d="M 451.5,405.5 C 457.925,405.13 464.258,405.63 470.5,407C 477.052,410.936 478.886,416.436 476,423.5C 469.902,432.379 461.569,437.712 451,439.5C 442.885,437.875 439.052,432.875 439.5,424.5C 439.247,415.312 443.247,408.979 451.5,405.5 Z"/></g>
<g><path style="opacity:0.936" fill="#0100f1" d="M 631.5,405.5 C 637.925,405.13 644.258,405.63 650.5,407C 657.052,410.936 658.886,416.436 656,423.5C 649.902,432.379 641.569,437.712 631,439.5C 622.885,437.875 619.052,432.875 619.5,424.5C 619.247,415.312 623.247,408.979 631.5,405.5 Z"/></g>
<g><path style="opacity:0.966" fill="#0100f1" d="M 783.5,405.5 C 798.837,405.333 814.17,405.5 829.5,406C 836.538,406.875 840.871,410.709 842.5,417.5C 841.408,423.614 839.241,429.28 836,434.5C 829.41,439.212 822.41,440.212 815,437.5C 810.858,441.874 810.024,446.707 812.5,452C 821.407,449.705 830.407,447.371 839.5,445C 876.463,443.633 893.296,461.466 890,498.5C 888.616,507.036 886.449,515.369 883.5,523.5C 884.709,527.545 887.209,530.545 891,532.5C 893.058,536.22 892.891,539.72 890.5,543C 877.214,544.57 863.881,544.903 850.5,544C 844.702,543.615 842.369,540.449 843.5,534.5C 845.17,524.816 847.004,515.149 849,505.5C 850.319,496.201 849.319,487.201 846,478.5C 838.102,470.355 830.436,470.688 823,479.5C 817.02,488.278 816.02,497.611 820,507.5C 825.053,513.552 829.719,519.885 834,526.5C 835.57,536.937 831.07,542.771 820.5,544C 805.833,544.667 791.167,544.667 776.5,544C 762.936,543.082 757.769,535.915 761,522.5C 771.208,498.21 779.208,473.21 785,447.5C 785.667,441.167 785.667,434.833 785,428.5C 782.827,422.823 780.66,417.156 778.5,411.5C 778.667,410.5 778.833,409.5 779,408.5C 780.652,407.601 782.152,406.601 783.5,405.5 Z"/></g>
<g><path style="opacity:0.978" fill="#0100f1" d="M 262.5,414.5 C 275.171,414.333 287.838,414.5 300.5,415C 318.787,420.113 325.287,431.946 320,450.5C 318.209,457.953 314.376,464.12 308.5,469C 322.498,479.823 328.665,493.99 327,511.5C 322.807,525.703 313.64,535.203 299.5,540C 295.877,541.156 292.211,542.156 288.5,543C 255.773,543.978 223.106,543.645 190.5,542C 187.651,539.441 186.817,536.274 188,532.5C 193.333,525.167 198.667,517.833 204,510.5C 211.383,482.579 218.383,454.579 225,426.5C 229.189,422.822 234.023,420.322 239.5,419C 247.223,417.05 254.889,415.55 262.5,414.5 Z M 269.5,439.5 C 277.594,439.385 279.761,442.718 276,449.5C 272.43,454.199 267.93,456.532 262.5,456.5C 264.301,451.931 265.801,447.265 267,442.5C 267.698,441.309 268.531,440.309 269.5,439.5 Z M 251.5,491.5 C 256.067,491.521 259.901,493.188 263,496.5C 263.027,502.269 260.527,506.769 255.5,510C 252.439,512.035 249.105,513.201 245.5,513.5C 247.192,506.063 249.192,498.73 251.5,491.5 Z"/></g>
<g><path style="opacity:0.964" fill="#0100f1" d="M 439.5,444.5 C 451.246,444.301 462.913,445.134 474.5,447C 477.663,448.48 479.496,450.98 480,454.5C 480.724,460.318 480.057,465.985 478,471.5C 474.387,474.623 471.054,477.956 468,481.5C 466.445,486.382 466.112,491.382 467,496.5C 471,503.833 475,511.167 479,518.5C 483.046,530.771 478.88,538.604 466.5,542C 454.979,544.553 443.312,544.553 431.5,542C 420.658,538.151 416.825,530.651 420,519.5C 423.535,509.229 426.868,498.895 430,488.5C 429.917,478.503 429.917,468.503 430,458.5C 431.461,452.55 434.627,447.883 439.5,444.5 Z"/></g>
<g><path style="opacity:0.964" fill="#0100f1" d="M 619.5,444.5 C 631.246,444.301 642.913,445.134 654.5,447C 657.663,448.48 659.496,450.98 660,454.5C 660.724,460.318 660.057,465.985 658,471.5C 654.387,474.623 651.054,477.956 648,481.5C 646.445,486.382 646.112,491.382 647,496.5C 651,503.833 655,511.167 659,518.5C 663.046,530.771 658.88,538.604 646.5,542C 634.979,544.553 623.312,544.553 611.5,542C 600.658,538.151 596.825,530.651 600,519.5C 603.535,509.229 606.868,498.895 610,488.5C 609.917,478.503 609.917,468.503 610,458.5C 611.461,452.55 614.627,447.883 619.5,444.5 Z"/></g>
<g><path style="opacity:0.952" fill="#0100f1" d="M 702.5,444.5 C 710.553,444.225 718.553,444.725 726.5,446C 733.722,447.235 738.389,451.235 740.5,458C 739.579,465.156 735.579,467.49 728.5,465C 722.758,463.085 716.925,461.585 711,460.5C 703.952,460.661 701.285,463.994 703,470.5C 704.873,472.709 707.04,474.542 709.5,476C 722.094,479.231 734.427,483.231 746.5,488C 756.032,493.053 760.699,501.053 760.5,512C 759.032,526.612 751.365,536.279 737.5,541C 721.919,545.188 706.252,545.522 690.5,542C 669.866,537.553 661.7,525.053 666,504.5C 670.086,495.205 676.919,492.038 686.5,495C 690.257,500.845 694.924,505.845 700.5,510C 703.419,511.14 706.419,511.973 709.5,512.5C 716.711,511.628 718.211,508.295 714,502.5C 705.231,497.394 696.731,491.894 688.5,486C 683.813,481.457 679.98,476.291 677,470.5C 676.105,462.449 678.939,455.949 685.5,451C 690.888,447.752 696.554,445.585 702.5,444.5 Z"/></g>
<g><path style="opacity:0.961" fill="#0100f1" d="M 350.5,445.5 C 361.172,445.333 371.839,445.5 382.5,446C 386.49,447.99 388.99,451.157 390,455.5C 393.552,452.281 397.385,449.448 401.5,447C 408.568,444.081 414.735,445.247 420,450.5C 422.112,462.935 421.445,475.269 418,487.5C 416.586,493.905 414.919,500.239 413,506.5C 409.175,512.914 403.508,516.248 396,516.5C 390.281,516.261 385.281,514.261 381,510.5C 380.399,508.863 379.899,507.197 379.5,505.5C 382.449,497.934 385.116,490.267 387.5,482.5C 387.486,478.391 385.486,476.891 381.5,478C 376.366,484.566 373.699,492.066 373.5,500.5C 374.649,511.245 376.316,521.912 378.5,532.5C 379.306,538.929 376.639,542.762 370.5,544C 358.457,544.865 346.457,544.532 334.5,543C 333.707,541.915 333.04,540.748 332.5,539.5C 334.045,535.783 336.212,532.45 339,529.5C 342.478,514.203 344.645,498.703 345.5,483C 345.153,477.754 344.32,472.588 343,467.5C 341.873,461.245 342.54,455.245 345,449.5C 346.812,448.023 348.645,446.69 350.5,445.5 Z"/></g>
<g><path style="opacity:0.97" fill="#0100f1" d="M 433.5,547.5 C 435.467,547.261 437.301,547.594 439,548.5C 441.333,563.833 438.666,578.166 431,591.5C 425.547,597.078 419.38,598.244 412.5,595C 408.452,590.62 404.785,585.954 401.5,581C 399.5,580.333 397.5,580.333 395.5,581C 383.969,590.704 376.302,602.871 372.5,617.5C 374.129,622.827 377.796,625.493 383.5,625.5C 392.98,624.621 401.313,621.121 408.5,615C 432.076,605.24 442.576,613.073 440,638.5C 436.645,653.899 431.312,668.565 424,682.5C 423.167,684 422,685.167 420.5,686C 405.814,686.655 391.147,686.321 376.5,685C 374.879,682.834 374.045,680.334 374,677.5C 363.564,689.011 352.897,689.344 342,678.5C 324.59,650.864 322.923,622.198 337,592.5C 342.897,580.534 350.397,569.701 359.5,560C 365.252,555.958 371.585,553.291 378.5,552C 394.31,550.077 409.643,551.91 424.5,557.5C 426.581,553.335 429.581,550.002 433.5,547.5 Z"/></g>
<g><path style="opacity:0.96" fill="#0100f1" d="M 474.5,580.5 C 486.838,580.333 499.171,580.5 511.5,581C 523.32,582.848 532.487,588.681 539,598.5C 540.457,602.741 540.791,607.074 540,611.5C 537.342,618.137 535.509,624.97 534.5,632C 534.667,633.833 534.833,635.667 535,637.5C 545.53,656.508 541.697,672.008 523.5,684C 518.77,685.916 514.104,686.249 509.5,685C 507.598,682.655 505.598,680.489 503.5,678.5C 492.337,682.833 480.837,685.5 469,686.5C 452.657,684.152 443.823,674.652 442.5,658C 445.312,644.057 452.646,633.057 464.5,625C 475.517,618.491 486.85,612.491 498.5,607C 508.139,601.221 507.806,596.221 497.5,592C 492.143,591.043 486.976,591.543 482,593.5C 481.227,609.303 474.061,613.136 460.5,605C 453.555,597.953 453.889,591.286 461.5,585C 465.788,583.021 470.122,581.521 474.5,580.5 Z M 496.5,631.5 C 497.693,631.97 498.36,632.97 498.5,634.5C 497.828,644.031 493.495,651.197 485.5,656C 475.863,656.116 474.03,652.282 480,644.5C 484.934,639.303 490.434,634.97 496.5,631.5 Z"/></g>
<g><path style="opacity:0.964" fill="#0100f1" d="M 568.5,580.5 C 576.862,578.698 580.695,582.031 580,590.5C 588.779,581.347 599.279,578.513 611.5,582C 617.403,586.293 620.903,592.126 622,599.5C 629.663,580.592 642.83,575.425 661.5,584C 668.171,588.351 672.005,594.517 673,602.5C 675.953,629.737 670.953,655.403 658,679.5C 651.207,686.525 643.374,688.025 634.5,684C 630.87,680.95 629.703,677.117 631,672.5C 633.451,665.596 636.451,658.93 640,652.5C 642.579,646.9 642.912,641.234 641,635.5C 635.063,631.47 630.397,632.804 627,639.5C 625.088,649.403 623.755,659.403 623,669.5C 622.142,677.603 618.142,683.27 611,686.5C 604.463,685.794 601.297,682.127 601.5,675.5C 602.837,668.482 604.337,661.482 606,654.5C 606.667,648.167 606.667,641.833 606,635.5C 604.451,628.24 600.284,625.74 593.5,628C 591.139,631.633 590.139,635.633 590.5,640C 591.846,650.385 593.513,660.719 595.5,671C 595.938,677.809 592.938,682.142 586.5,684C 549.415,692.392 538.248,678.892 553,643.5C 553.977,628.163 554.977,612.83 556,597.5C 556.811,589.157 560.978,583.49 568.5,580.5 Z"/></g>
<g><path style="opacity:0.97" fill="#0100f1" d="M 708.5,580.5 C 710.989,580.298 713.323,580.798 715.5,582C 717.82,585.485 720.487,588.651 723.5,591.5C 732.478,584.185 742.811,580.518 754.5,580.5C 759.49,580.414 764.156,581.581 768.5,584C 781.742,596.534 788.075,612.034 787.5,630.5C 786.466,670.049 766.466,688.216 727.5,685C 721.365,682.53 716.865,678.363 714,672.5C 710.272,685.26 708.605,698.26 709,711.5C 709.561,713.725 710.561,715.725 712,717.5C 717,721.5 722,725.5 727,729.5C 728.786,733.484 727.953,736.984 724.5,740C 721.382,741.893 718.049,743.226 714.5,744C 703.544,745.517 692.544,745.85 681.5,745C 669.035,742.202 661.702,734.536 659.5,722C 665.188,708.121 671.022,694.288 677,680.5C 682.114,664.379 686.447,648.045 690,631.5C 691.33,625.548 691.663,619.548 691,613.5C 688.372,611.874 686.039,609.874 684,607.5C 682.578,604.97 682.245,602.303 683,599.5C 689.688,590.589 698.188,584.256 708.5,580.5 Z M 726.5,620.5 C 734.574,621.736 738.407,626.403 738,634.5C 733.039,640.315 727.872,640.815 722.5,636C 723.522,630.714 724.855,625.547 726.5,620.5 Z"/></g>
</svg>
